<svg width="18" height="18" viewBox="0 0 18 18" fill="none" xmlns="http://www.w3.org/2000/svg">
<path d="M6.008 3.54376H11.4947C13.4036 3.54376 14.5861 4.60438 14.5805 6.55258V12.4659C14.5805 14.4148 13.398 15.481 11.4891 15.481H6.008C4.10463 15.481 2.9165 14.3958 2.9165 12.4168V6.55258C2.9165 4.60438 4.10463 3.54376 6.008 3.54376Z" stroke="#DD5313" stroke-linecap="round" stroke-linejoin="round"/>
<path d="M6.33936 12.8052C6.33936 12.0185 6.96003 11.0391 8.74783 11.0391C10.5363 11.0391 11.157 12.0114 11.157 12.7982" stroke="#DD5313" stroke-linecap="round" stroke-linejoin="round"/>
<path fill-rule="evenodd" clip-rule="evenodd" d="M10.286 7.88626C10.286 8.736 9.59738 9.42461 8.74757 9.42461C7.89782 9.42461 7.2085 8.736 7.2085 7.88626C7.2085 7.03647 7.89782 6.34784 8.74757 6.34784C9.59738 6.34784 10.286 7.03647 10.286 7.88626Z" stroke="#DD5313" stroke-linecap="round" stroke-linejoin="round"/>
<path d="M11.3681 2.52002V4.65247M6.13257 2.52002V4.65247" stroke="#DD5313" stroke-linecap="round" stroke-linejoin="round"/>
</svg>
