<svg width="18" height="18" viewBox="0 0 18 18" fill="none" xmlns="http://www.w3.org/2000/svg">
<path d="M13.4158 8.17242C14.462 8.02542 15.2675 7.12842 15.2698 6.04167C15.2698 4.97067 14.489 4.08267 13.4653 3.91467" stroke="#A9ABAD" stroke-width="1.5" stroke-linecap="round" stroke-linejoin="round"/>
<path d="M14.7964 10.6876C15.8096 10.8391 16.5169 11.1939 16.5169 11.9251C16.5169 12.4284 16.1839 12.7554 15.6454 12.9609" stroke="#A9ABAD" stroke-width="1.5" stroke-linecap="round" stroke-linejoin="round"/>
<path fill-rule="evenodd" clip-rule="evenodd" d="M8.91505 10.9978C6.50455 10.9978 4.4458 11.3631 4.4458 12.8218C4.4458 14.2798 6.4918 14.6556 8.91505 14.6556C11.3256 14.6556 13.3836 14.2941 13.3836 12.8346C13.3836 11.3751 11.3383 10.9978 8.91505 10.9978Z" stroke="#A9ABAD" stroke-width="1.5" stroke-linecap="round" stroke-linejoin="round"/>
<path fill-rule="evenodd" clip-rule="evenodd" d="M8.91507 8.91588C10.4968 8.91588 11.7793 7.63413 11.7793 6.05163C11.7793 4.46988 10.4968 3.18738 8.91507 3.18738C7.33332 3.18738 6.0508 4.46988 6.0508 6.05163C6.04482 7.62813 7.31757 8.91063 8.89407 8.91588H8.91507Z" stroke="#A9ABAD" stroke-width="1.5" stroke-linecap="round" stroke-linejoin="round"/>
<path d="M4.41357 8.17242C3.36657 8.02542 2.56182 7.12842 2.55957 6.04167C2.55957 4.97067 3.34032 4.08267 4.36407 3.91467" stroke="#A9ABAD" stroke-width="1.5" stroke-linecap="round" stroke-linejoin="round"/>
<path d="M3.033 10.6876C2.01975 10.8391 1.3125 11.1939 1.3125 11.9251C1.3125 12.4284 1.6455 12.7554 2.184 12.9609" stroke="#A9ABAD" stroke-width="1.5" stroke-linecap="round" stroke-linejoin="round"/>
</svg>
