<svg width="18" height="18" viewBox="0 0 18 18" fill="none" xmlns="http://www.w3.org/2000/svg">
<path d="M8.08066 10.7054L3.15433 8.29756C2.10069 7.78261 2.10069 6.28131 3.15363 5.76639L7.85934 3.46644C8.47652 3.16451 9.1981 3.16451 9.81529 3.46644L14.5265 5.76849C15.5802 6.28341 15.5802 7.78542 14.5265 8.30029L9.81738 10.6017C9.1981 10.9043 8.47443 10.9043 7.85509 10.6017L4.8637 9.1396" stroke="#A9ABAD" stroke-width="1.44" stroke-linecap="round" stroke-linejoin="round"/>
<path d="M15.3239 7.02563L15.3 10.9236" stroke="#A9ABAD" stroke-width="1.44" stroke-linecap="round" stroke-linejoin="round"/>
<path d="M4.86426 9.14062V12.7198C4.86426 13.3363 5.22995 13.9038 5.79951 14.1392C7.79749 14.9637 9.78714 14.9742 11.769 14.144C12.3344 13.9072 12.6965 13.3412 12.6965 12.7282V9.20578" stroke="#A9ABAD" stroke-width="1.44" stroke-linecap="round" stroke-linejoin="round"/>
</svg>
