<svg width="18" height="18" viewBox="0 0 18 18" fill="none" xmlns="http://www.w3.org/2000/svg">
<path d="M9 15.2057V2.24573" stroke="#A9ABAD" stroke-width="1.44" stroke-linecap="round" stroke-linejoin="round"/>
<path d="M5.68469 8.75287C5.68469 7.95758 5.03998 7.31287 4.24469 7.31287C3.4494 7.31287 2.80469 7.95758 2.80469 8.75287C2.80469 9.54816 3.4494 10.1929 4.24469 10.1929C5.03998 10.1929 5.68469 9.54816 5.68469 8.75287Z" stroke="#A9ABAD" stroke-width="1.44"/>
<path d="M7.9397 8.75281H8.9999" stroke="#A9ABAD" stroke-width="1.44" stroke-linecap="round" stroke-linejoin="round"/>
<path d="M5.68481 8.75281H6.55194" stroke="#A9ABAD" stroke-width="1.44" stroke-linecap="round" stroke-linejoin="round"/>
<path d="M12.3153 5.02667C12.3153 4.23138 12.96 3.58667 13.7553 3.58667C14.5506 3.58667 15.1953 4.23138 15.1953 5.02667C15.1953 5.82196 14.5506 6.46667 13.7553 6.46667C12.96 6.46667 12.3153 5.82196 12.3153 5.02667Z" stroke="#A9ABAD" stroke-width="1.44"/>
<path d="M10.0604 5.02662L9.00024 5.02661" stroke="#A9ABAD" stroke-width="1.44" stroke-linecap="round" stroke-linejoin="round"/>
<path d="M12.3152 5.02662L11.448 5.02661" stroke="#A9ABAD" stroke-width="1.44" stroke-linecap="round" stroke-linejoin="round"/>
<path d="M12.3153 12.4249C12.3153 11.6296 12.96 10.9849 13.7553 10.9849C14.5506 10.9849 15.1953 11.6296 15.1953 12.4249C15.1953 13.2202 14.5506 13.8649 13.7553 13.8649C12.96 13.8649 12.3153 13.2202 12.3153 12.4249Z" stroke="#A9ABAD" stroke-width="1.44"/>
<path d="M10.0604 12.4249H9.00024" stroke="#A9ABAD" stroke-width="1.44" stroke-linecap="round" stroke-linejoin="round"/>
<path d="M12.3152 12.4249H11.448" stroke="#A9ABAD" stroke-width="1.44" stroke-linecap="round" stroke-linejoin="round"/>
</svg>
