<svg width="18" height="18" viewBox="0 0 18 18" fill="none" xmlns="http://www.w3.org/2000/svg">
<path d="M6.12649 14.8231C8.52518 15.9366 11.459 15.5071 13.4388 13.52C15.9671 10.9831 15.9713 6.86682 13.4388 4.32507C10.9105 1.78894 6.80322 1.78894 4.27494 4.32507C2.29519 6.31222 1.86646 9.25532 2.97683 11.6621C3.11904 12.0185 3.22972 12.3046 3.22972 12.5822C3.22972 13.3582 2.48364 14.3192 2.98103 14.8183C3.47842 15.3173 4.43607 14.5687 5.20526 14.5645C5.48128 14.5645 5.77201 14.6797 6.12649 14.8231Z" stroke="white" stroke-width="1.44" stroke-linecap="round" stroke-linejoin="round"/>
<path d="M8.69489 11.7028L8.69906 11.7282" stroke="white" stroke-width="1.44" stroke-linecap="round" stroke-linejoin="round"/>
<path d="M8.69524 10.0845C8.68754 9.49337 9.2235 9.2431 9.6221 9.01464C10.1076 8.74615 10.4368 8.31804 10.4368 7.72476C10.4368 6.84544 9.72786 6.13971 8.8571 6.13971C7.98071 6.13971 7.27734 6.84544 7.27734 7.72476" stroke="white" stroke-width="1.44" stroke-linecap="round" stroke-linejoin="round"/>
</svg>
